<svg width="628" height="110" viewBox="0 0 628 110" fill="none" xmlns="http://www.w3.org/2000/svg" xmlns:xlink="http://www.w3.org/1999/xlink">
<mask id="mask_0_6_1502" style="mask-type:alpha" maskUnits="userSpaceOnUse" x="0" y="0" width="314" height="55">
<rect  x="0.304" y="0.304" width="627.392" height="109.392" rx="15.696" transform="rotate(0 0.304 0.304)" fill="url(#pf_0_6_1502)"/>
<rect  x="0.304" y="0.304" width="627.392" height="109.392" rx="15.696" transform="rotate(0 0.304 0.304)" fill="url(#pattern_1_6_1502)"/>
<rect  x="0.304" y="0.304" width="627.392" height="109.392" rx="15.696" transform="rotate(0 0.304 0.304)"/>
<rect  x="0.304" y="0.304" width="627.392" height="109.392" rx="15.696" transform="rotate(0 0.304 0.304)"/>
</mask>
<g mask="url(#mask_0_6_1502)">
<rect  x="0.304" y="0.304" width="627.392" height="109.392" rx="15.696" transform="rotate(0 0.304 0.304)" fill="url(#pf_0_6_1503)"/>
<rect  x="0.304" y="0.304" width="627.392" height="109.392" rx="15.696" transform="rotate(0 0.304 0.304)" fill="url(#pattern_1_6_1503)" style="mix-blend-mode:overlay"/>
<rect  x="0.304" y="0.304" width="627.392" height="109.392" rx="15.696" transform="rotate(0 0.304 0.304)" stroke="url(#ps_0_6_1503)" stroke-width="0.304" stroke-miterlimit="3.999327"/>
<rect  x="0.304" y="0.304" width="627.392" height="109.392" rx="15.696" transform="rotate(0 0.304 0.304)" stroke="url(#ps_1_6_1503)" stroke-width="0.304" stroke-miterlimit="3.999327"/>
</g>
<defs>
<radialGradient id="pf_0_6_1503" cx="0" cy="0" r="1" gradientUnits="userSpaceOnUse" gradientTransform="matrix(283.091257 49.213668 -161.001467 78.654847 48.255 11.725)">
<stop stop-color="#FFFFFF" stop-opacity="0.2"/>
<stop offset="0.771" stop-color="#FFFFFF" stop-opacity="0.2"/>
<stop offset="1" stop-color="#FFFFFF" stop-opacity="0.2"/>
</radialGradient>
<radialGradient id="ps_0_6_1503" cx="0" cy="0" r="1" gradientUnits="userSpaceOnUse" gradientTransform="matrix(252.387209 40.086775 -228.859042 122.374034 -43.038 -6.648)">
<stop stop-color="#FFFFFF"/>
<stop offset="1" stop-color="#FFFFFF" stop-opacity="0"/>
</radialGradient>
<radialGradient id="ps_1_6_1503" cx="0" cy="0" r="1" gradientUnits="userSpaceOnUse" gradientTransform="matrix(-236.830499 -44.381776 253.379595 -114.83111 340.148 62.072)">
<stop stop-color="#FFFFFF"/>
<stop offset="1" stop-color="#252525" stop-opacity="0"/>
</radialGradient>
</defs>
</svg>
