<svg width="32" height="8" viewBox="0 0 32 8" fill="none" xmlns="http://www.w3.org/2000/svg" xmlns:xlink="http://www.w3.org/1999/xlink">
<path d="M4,-0.46C1.8,-0.46 0,1.209 0,3.249C0,5.289 1.8,6.958 4,6.958C6.2,6.958 8,5.289 8,3.249C8,1.209 6.2,-0.46 4,-0.46ZM28,-0.46C25.8,-0.46 24,1.209 24,3.249C24,5.289 25.8,6.958 28,6.958C30.2,6.958 32,5.289 32,3.249C32,1.209 30.2,-0.46 28,-0.46ZM16,-0.46C13.8,-0.46 12,1.209 12,3.249C12,5.289 13.8,6.958 16,6.958C18.2,6.958 20,5.289 20,3.249C20,1.209 18.2,-0.46 16,-0.46Z" fill="#E34B59"/>
<path d="M4,-0.46C1.8,-0.46 0,1.209 0,3.249C0,5.289 1.8,6.958 4,6.958C6.2,6.958 8,5.289 8,3.249C8,1.209 6.2,-0.46 4,-0.46ZM28,-0.46C25.8,-0.46 24,1.209 24,3.249C24,5.289 25.8,6.958 28,6.958C30.2,6.958 32,5.289 32,3.249C32,1.209 30.2,-0.46 28,-0.46ZM16,-0.46C13.8,-0.46 12,1.209 12,3.249C12,5.289 13.8,6.958 16,6.958C18.2,6.958 20,5.289 20,3.249C20,1.209 18.2,-0.46 16,-0.46Z" fill="#E34B59"/>
</svg>
