<svg width="32" height="10" viewBox="0 0 32 10" fill="none" xmlns="http://www.w3.org/2000/svg" xmlns:xlink="http://www.w3.org/1999/xlink">
<path d="M4,0.662C1.8,0.662 0,2.331 0,4.371C0,6.411 1.8,8.08 4,8.08C6.2,8.08 8,6.411 8,4.371C8,2.331 6.2,0.662 4,0.662ZM28,0.662C25.8,0.662 24,2.331 24,4.371C24,6.411 25.8,8.08 28,8.08C30.2,8.08 32,6.411 32,4.371C32,2.331 30.2,0.662 28,0.662ZM16,0.662C13.8,0.662 12,2.331 12,4.371C12,6.411 13.8,8.08 16,8.08C18.2,8.08 20,6.411 20,4.371C20,2.331 18.2,0.662 16,0.662Z" fill="#E34B59"/>
<path d="M4,0.662C1.8,0.662 0,2.331 0,4.371C0,6.411 1.8,8.08 4,8.08C6.2,8.08 8,6.411 8,4.371C8,2.331 6.2,0.662 4,0.662ZM28,0.662C25.8,0.662 24,2.331 24,4.371C24,6.411 25.8,8.08 28,8.08C30.2,8.08 32,6.411 32,4.371C32,2.331 30.2,0.662 28,0.662ZM16,0.662C13.8,0.662 12,2.331 12,4.371C12,6.411 13.8,8.08 16,8.08C18.2,8.08 20,6.411 20,4.371C20,2.331 18.2,0.662 16,0.662Z" fill="#E34B59"/>
</svg>
