<svg width="756" height="150" viewBox="0 0 756 150" fill="none" xmlns="http://www.w3.org/2000/svg" xmlns:xlink="http://www.w3.org/1999/xlink">
<g filter="url(#filter1_1184)">
<rect  x="0" y="24" width="756" height="126" rx="200" fill="#000000"/>
</g>
<g filter="url(#filter1_1185)">
<rect  x="304" y="0" width="135" height="139" rx="59.5" fill="#211C1C" stroke="#E34B59" stroke-width="0.5" stroke-miterlimit="3.999327"/>
</g>
<rect  x="336" y="38" width="28" height="28" rx="4" stroke="#F2F2F7" stroke-width="2" stroke-miterlimit="3.999327" stroke-linecap="round"/>
<rect  x="336" y="82" width="28" height="28" rx="4" stroke="#F2F2F7" stroke-width="2" stroke-miterlimit="3.999327" stroke-linecap="round"/>
<rect  x="380" y="38" width="28" height="28" rx="4" stroke="#F2F2F7" stroke-width="2" stroke-miterlimit="3.999327" stroke-linecap="round"/>
<line x1="394" y1="84.001" x2="394" y2="112.002" stroke="#FF6961" stroke-width="2" stroke-miterlimit="3.999327" stroke-linecap="round"/>
<line x1="410" y1="96" x2="382" y2="96" stroke="#FF6961" stroke-width="2" stroke-miterlimit="3.999327" stroke-linecap="round"/>
<circle cx="646" cy="71" r="10.5" stroke="#F2F2F7" stroke-width="2" stroke-miterlimit="3.999327" stroke-linecap="round"/>
<circle cx="646" cy="78" r="31.5" stroke="#F2F2F7" stroke-width="2" stroke-miterlimit="3.999327"/>
<path d="M665.102,102.102C665.451,103.15 666.584,103.717 667.632,103.368C668.68,103.019 669.246,101.887 668.898,100.839L665.102,102.102ZM623.102,100.839C622.754,101.887 623.32,103.019 624.368,103.368C625.416,103.717 626.549,103.15 626.898,102.102L623.102,100.839ZM668.898,100.839C667.491,96.612 664.423,92.97 660.286,90.415L658.184,93.818C661.64,95.953 664.032,98.887 665.102,102.102L668.898,100.839ZM660.286,90.415C656.15,87.86 651.129,86.5 646,86.5L646,90.5C650.443,90.5 654.726,91.682 658.184,93.818L660.286,90.415ZM646,86.5C640.871,86.5 635.85,87.86 631.714,90.415L633.816,93.818C637.274,91.682 641.557,90.5 646,90.5L646,86.5ZM631.714,90.415C627.577,92.97 624.509,96.612 623.102,100.839L626.898,102.102C627.968,98.887 630.36,95.953 633.816,93.818L631.714,90.415Z" fill="#F2F2F7"/>
<path d="M104.333,61.714L105.635,63.233L105.635,63.233L104.333,61.714ZM131.667,61.714L130.365,63.233L130.365,63.233L131.667,61.714ZM135.167,64.714L136.468,63.196L136.468,63.196L135.167,64.714ZM100.833,64.714L99.532,63.196L99.532,63.196L100.833,64.714ZM140.5,80.659L140.5,95.5L144.5,95.5L144.5,80.659L140.5,80.659ZM128.5,107.5L107.5,107.5L107.5,111.5L128.5,111.5L128.5,107.5ZM95.5,95.5L95.5,80.659L91.5,80.659L91.5,95.5L95.5,95.5ZM102.135,66.233L105.635,63.233L103.032,60.196L99.532,63.196L102.135,66.233ZM130.365,63.233L133.865,66.233L136.468,63.196L132.968,60.196L130.365,63.233ZM105.635,63.233C108.935,60.404 111.271,58.407 113.258,57.094C115.198,55.813 116.598,55.329 118,55.329L118,51.329C115.517,51.329 113.345,52.243 111.053,53.757C108.809,55.239 106.253,57.434 103.032,60.196L105.635,63.233ZM132.968,60.196C129.747,57.434 127.191,55.239 124.947,53.757C122.655,52.243 120.483,51.329 118,51.329L118,55.329C119.402,55.329 120.802,55.813 122.742,57.094C124.729,58.407 127.065,60.404 130.365,63.233L132.968,60.196ZM107.5,107.5C104.144,107.5 101.828,107.496 100.086,107.262C98.401,107.035 97.556,106.627 96.964,106.036L94.136,108.864C95.595,110.323 97.425,110.94 99.553,111.226C101.623,111.504 104.257,111.5 107.5,111.5L107.5,107.5ZM91.5,95.5C91.5,98.743 91.496,101.377 91.774,103.447C92.06,105.575 92.677,107.405 94.136,108.864L96.964,106.036C96.373,105.444 95.965,104.599 95.738,102.914C95.504,101.173 95.5,98.856 95.5,95.5L91.5,95.5ZM140.5,95.5C140.5,98.856 140.496,101.173 140.262,102.914C140.035,104.599 139.627,105.444 139.036,106.036L141.864,108.864C143.323,107.405 143.94,105.575 144.226,103.447C144.504,101.377 144.5,98.743 144.5,95.5L140.5,95.5ZM128.5,111.5C131.743,111.5 134.377,111.504 136.447,111.226C138.575,110.94 140.405,110.323 141.864,108.864L139.036,106.036C138.444,106.627 137.599,107.035 135.914,107.262C134.172,107.496 131.856,107.5 128.5,107.5L128.5,111.5ZM144.5,80.659C144.5,76.09 144.543,73.186 143.356,70.606L139.722,72.278C140.457,73.875 140.5,75.724 140.5,80.659L144.5,80.659ZM133.865,66.233C137.612,69.445 138.987,70.68 139.722,72.278L143.356,70.606C142.17,68.027 139.937,66.169 136.468,63.196L133.865,66.233ZM95.5,80.659C95.5,75.724 95.543,73.875 96.278,72.278L92.644,70.606C91.457,73.186 91.5,76.09 91.5,80.659L95.5,80.659ZM99.532,63.196C96.063,66.169 93.83,68.027 92.644,70.606L96.278,72.278C97.013,70.68 98.388,69.445 102.135,66.233L99.532,63.196Z" fill="#F2F2F7"/>
<path d="M124.75,109.5C124.75,110.605 125.645,111.5 126.75,111.5C127.855,111.5 128.75,110.605 128.75,109.5L124.75,109.5ZM107.25,109.5C107.25,110.605 108.145,111.5 109.25,111.5C110.355,111.5 111.25,110.605 111.25,109.5L107.25,109.5ZM113.25,90.5L122.75,90.5L122.75,86.5L113.25,86.5L113.25,90.5ZM124.75,92.5L124.75,109.5L128.75,109.5L128.75,92.5L124.75,92.5ZM107.25,92.5L107.25,109.5L111.25,109.5L111.25,92.5L107.25,92.5ZM122.75,90.5C123.855,90.5 124.75,91.395 124.75,92.5L128.75,92.5C128.75,89.186 126.064,86.5 122.75,86.5L122.75,90.5ZM113.25,86.5C109.936,86.5 107.25,89.186 107.25,92.5L111.25,92.5C111.25,91.395 112.145,90.5 113.25,90.5L113.25,86.5Z" fill="#F2F2F7"/>
<g filter="url(#filter6_620)">
<rect  x="0" y="24" width="756" height="126" rx="200" fill="#000000"/>
</g>
<g filter="url(#filter6_621)">
<rect  x="304" y="0" width="135" height="139" rx="59.5" fill="#211C1C" stroke="#E34B59" stroke-width="0.5" stroke-miterlimit="3.999327"/>
</g>
<rect  x="336" y="38" width="28" height="28" rx="4" stroke="#F2F2F7" stroke-width="2" stroke-miterlimit="3.999327" stroke-linecap="round"/>
<rect  x="336" y="82" width="28" height="28" rx="4" stroke="#F2F2F7" stroke-width="2" stroke-miterlimit="3.999327" stroke-linecap="round"/>
<rect  x="380" y="38" width="28" height="28" rx="4" stroke="#F2F2F7" stroke-width="2" stroke-miterlimit="3.999327" stroke-linecap="round"/>
<line x1="394" y1="84.001" x2="394" y2="112.002" stroke="#FF6961" stroke-width="2" stroke-miterlimit="3.999327" stroke-linecap="round"/>
<line x1="410" y1="96" x2="382" y2="96" stroke="#FF6961" stroke-width="2" stroke-miterlimit="3.999327" stroke-linecap="round"/>
<circle cx="646" cy="71" r="10.5" stroke="#F2F2F7" stroke-width="2" stroke-miterlimit="3.999327" stroke-linecap="round"/>
<circle cx="646" cy="78" r="31.5" stroke="#F2F2F7" stroke-width="2" stroke-miterlimit="3.999327"/>
<path d="M665.102,102.102C665.451,103.15 666.584,103.717 667.632,103.368C668.68,103.019 669.246,101.887 668.898,100.839L665.102,102.102ZM623.102,100.839C622.754,101.887 623.32,103.019 624.368,103.368C625.416,103.717 626.549,103.15 626.898,102.102L623.102,100.839ZM668.898,100.839C667.491,96.612 664.423,92.97 660.286,90.415L658.184,93.818C661.64,95.953 664.032,98.887 665.102,102.102L668.898,100.839ZM660.286,90.415C656.15,87.86 651.129,86.5 646,86.5L646,90.5C650.443,90.5 654.726,91.682 658.184,93.818L660.286,90.415ZM646,86.5C640.871,86.5 635.85,87.86 631.714,90.415L633.816,93.818C637.274,91.682 641.557,90.5 646,90.5L646,86.5ZM631.714,90.415C627.577,92.97 624.509,96.612 623.102,100.839L626.898,102.102C627.968,98.887 630.36,95.953 633.816,93.818L631.714,90.415Z" fill="#F2F2F7"/>
<path d="M104.333,61.714L105.635,63.233L105.635,63.233L104.333,61.714ZM131.667,61.714L130.365,63.233L130.365,63.233L131.667,61.714ZM135.167,64.714L136.468,63.196L136.468,63.196L135.167,64.714ZM100.833,64.714L99.532,63.196L99.532,63.196L100.833,64.714ZM140.5,80.659L140.5,95.5L144.5,95.5L144.5,80.659L140.5,80.659ZM128.5,107.5L107.5,107.5L107.5,111.5L128.5,111.5L128.5,107.5ZM95.5,95.5L95.5,80.659L91.5,80.659L91.5,95.5L95.5,95.5ZM102.135,66.233L105.635,63.233L103.032,60.196L99.532,63.196L102.135,66.233ZM130.365,63.233L133.865,66.233L136.468,63.196L132.968,60.196L130.365,63.233ZM105.635,63.233C108.935,60.404 111.271,58.406 113.258,57.094C115.198,55.813 116.598,55.329 118,55.329L118,51.329C115.517,51.329 113.345,52.243 111.053,53.756C108.809,55.239 106.253,57.434 103.032,60.196L105.635,63.233ZM132.968,60.196C129.747,57.434 127.191,55.239 124.947,53.756C122.655,52.243 120.483,51.329 118,51.329L118,55.329C119.402,55.329 120.802,55.813 122.742,57.094C124.729,58.406 127.065,60.404 130.365,63.233L132.968,60.196ZM107.5,107.5C104.144,107.5 101.828,107.496 100.086,107.261C98.401,107.035 97.556,106.627 96.964,106.035L94.136,108.864C95.595,110.323 97.425,110.94 99.553,111.226C101.623,111.504 104.257,111.5 107.5,111.5L107.5,107.5ZM91.5,95.5C91.5,98.743 91.496,101.377 91.774,103.447C92.06,105.575 92.677,107.405 94.136,108.864L96.964,106.035C96.373,105.444 95.965,104.599 95.738,102.914C95.504,101.172 95.5,98.856 95.5,95.5L91.5,95.5ZM140.5,95.5C140.5,98.856 140.496,101.172 140.262,102.914C140.035,104.599 139.627,105.444 139.036,106.035L141.864,108.864C143.323,107.405 143.94,105.575 144.226,103.447C144.504,101.377 144.5,98.743 144.5,95.5L140.5,95.5ZM128.5,111.5C131.743,111.5 134.377,111.504 136.447,111.226C138.575,110.94 140.405,110.323 141.864,108.864L139.036,106.035C138.444,106.627 137.599,107.035 135.914,107.261C134.172,107.496 131.856,107.5 128.5,107.5L128.5,111.5ZM144.5,80.659C144.5,76.089 144.543,73.185 143.356,70.606L139.722,72.277C140.457,73.875 140.5,75.723 140.5,80.659L144.5,80.659ZM133.865,66.233C137.612,69.444 138.987,70.68 139.722,72.277L143.356,70.606C142.17,68.026 139.937,66.169 136.468,63.196L133.865,66.233ZM95.5,80.659C95.5,75.723 95.543,73.875 96.278,72.277L92.644,70.606C91.457,73.185 91.5,76.089 91.5,80.659L95.5,80.659ZM99.532,63.196C96.063,66.169 93.83,68.026 92.644,70.606L96.278,72.277C97.013,70.68 98.388,69.444 102.135,66.233L99.532,63.196Z" fill="#F2F2F7"/>
<path d="M124.75,109.5C124.75,110.605 125.645,111.5 126.75,111.5C127.855,111.5 128.75,110.605 128.75,109.5L124.75,109.5ZM107.25,109.5C107.25,110.605 108.145,111.5 109.25,111.5C110.355,111.5 111.25,110.605 111.25,109.5L107.25,109.5ZM113.25,90.5L122.75,90.5L122.75,86.5L113.25,86.5L113.25,90.5ZM124.75,92.5L124.75,109.5L128.75,109.5L128.75,92.5L124.75,92.5ZM107.25,92.5L107.25,109.5L111.25,109.5L111.25,92.5L107.25,92.5ZM122.75,90.5C123.855,90.5 124.75,91.395 124.75,92.5L128.75,92.5C128.75,89.186 126.064,86.5 122.75,86.5L122.75,90.5ZM113.25,86.5C109.936,86.5 107.25,89.186 107.25,92.5L111.25,92.5C111.25,91.395 112.145,90.5 113.25,90.5L113.25,86.5Z" fill="#F2F2F7"/>
<defs>
<filter id="filter1_1184" x="0" y="24" width="380" height="65" filterUnits="userSpaceOnUse" color-interpolation-filters="sRGB">
<feFlood flood-opacity="0" result="BackgroundImageFix"/>
<feBlend mode="normal" in="SourceGraphic" in2="BackgroundImageFix" result="shape"/>
<feColorMatrix in="SourceAlpha" type="matrix" values="0 0 0 0 0 0 0 0 0 0 0 0 0 0 0 0 0 0 127 0" result="hardAlpha"/>
<feMorphology radius="-7" operator="erode" in="SourceAlpha" result="0innershadow"/>
<feOffset dx="2" dy="2"/>
<feGaussianBlur stdDeviation="7"/>
<feComposite in2="hardAlpha" operator="arithmetic" k2="-1" k3="1"/>
<feColorMatrix type="matrix" values="0 0 0 0 1 0 0 0 0 1 0 0 0 0 1 0 0 0 1 0"/>
<feBlend mode="normal" in2="shape" result="0innershadow"/>
</filter>
<filter id="filter1_1185" x="304" y="0" width="70" height="73" filterUnits="userSpaceOnUse" color-interpolation-filters="sRGB">
<feFlood flood-opacity="0" result="BackgroundImageFix"/>
<feBlend mode="normal" in="SourceGraphic" in2="BackgroundImageFix" result="shape"/>
<feColorMatrix in="SourceAlpha" type="matrix" values="0 0 0 0 0 0 0 0 0 0 0 0 0 0 0 0 0 0 127 0" result="hardAlpha"/>
<feMorphology radius="-6" operator="erode" in="SourceAlpha" result="0innershadow"/>
<feOffset dx="2" dy="3"/>
<feGaussianBlur stdDeviation="3.5"/>
<feComposite in2="hardAlpha" operator="arithmetic" k2="-1" k3="1"/>
<feColorMatrix type="matrix" values="0 0 0 0 1 0 0 0 0 1 0 0 0 0 1 0 0 0 1 0"/>
<feBlend mode="normal" in2="shape" result="0innershadow"/>
</filter>
<filter id="filter6_620" x="0" y="24" width="380" height="65" filterUnits="userSpaceOnUse" color-interpolation-filters="sRGB">
<feFlood flood-opacity="0" result="BackgroundImageFix"/>
<feBlend mode="normal" in="SourceGraphic" in2="BackgroundImageFix" result="shape"/>
<feColorMatrix in="SourceAlpha" type="matrix" values="0 0 0 0 0 0 0 0 0 0 0 0 0 0 0 0 0 0 127 0" result="hardAlpha"/>
<feMorphology radius="-7" operator="erode" in="SourceAlpha" result="0innershadow"/>
<feOffset dx="2" dy="2"/>
<feGaussianBlur stdDeviation="7"/>
<feComposite in2="hardAlpha" operator="arithmetic" k2="-1" k3="1"/>
<feColorMatrix type="matrix" values="0 0 0 0 1 0 0 0 0 1 0 0 0 0 1 0 0 0 1 0"/>
<feBlend mode="normal" in2="shape" result="0innershadow"/>
</filter>
<filter id="filter6_621" x="304" y="0" width="70" height="73" filterUnits="userSpaceOnUse" color-interpolation-filters="sRGB">
<feFlood flood-opacity="0" result="BackgroundImageFix"/>
<feBlend mode="normal" in="SourceGraphic" in2="BackgroundImageFix" result="shape"/>
<feColorMatrix in="SourceAlpha" type="matrix" values="0 0 0 0 0 0 0 0 0 0 0 0 0 0 0 0 0 0 127 0" result="hardAlpha"/>
<feMorphology radius="-6" operator="erode" in="SourceAlpha" result="0innershadow"/>
<feOffset dx="2" dy="3"/>
<feGaussianBlur stdDeviation="3.5"/>
<feComposite in2="hardAlpha" operator="arithmetic" k2="-1" k3="1"/>
<feColorMatrix type="matrix" values="0 0 0 0 1 0 0 0 0 1 0 0 0 0 1 0 0 0 1 0"/>
<feBlend mode="normal" in2="shape" result="0innershadow"/>
</filter>
</defs>
</svg>
