<svg width="134" height="32" viewBox="0 0 134 32" fill="none" xmlns="http://www.w3.org/2000/svg" xmlns:xlink="http://www.w3.org/1999/xlink">
<rect  x="36.077" y="-0.579" width="60.846" height="29.987" rx="69.5" stroke="#E34B59" stroke-width="0.5" stroke-miterlimit="3.999327"/>
<g opacity="0.3">
<path d="M118.538,3.498C111.426,3.498 105.654,8.978 105.654,15.73C105.654,22.482 111.426,27.962 118.538,27.962C125.651,27.962 131.423,22.482 131.423,15.73C131.423,8.978 125.651,3.498 118.538,3.498ZM117.25,25.43C112.161,24.83 108.231,20.72 108.231,15.73C108.231,14.972 108.334,14.25 108.501,13.54L114.673,19.399L114.673,20.623C114.673,21.968 115.833,23.069 117.25,23.069L117.25,25.43ZM126.14,22.323C125.805,21.332 124.852,20.623 123.692,20.623L122.404,20.623L122.404,16.953C122.404,16.28 121.824,15.73 121.115,15.73L113.385,15.73L113.385,13.284L115.962,13.284C116.67,13.284 117.25,12.733 117.25,12.06L117.25,9.614L119.827,9.614C121.244,9.614 122.404,8.513 122.404,7.168L122.404,6.666C126.179,8.122 128.846,11.632 128.846,15.73C128.846,18.274 127.815,20.586 126.14,22.323Z" fill="#E34B59"/>
</g>
<path d="M65.282,14.914C65.282,21.67 59.513,27.146 52.397,27.146C45.281,27.146 39.513,21.67 39.513,14.914C39.513,8.159 45.281,2.683 52.397,2.683C59.513,2.683 65.282,8.159 65.282,14.914Z" fill="#E34B59"/>
<path d="M15.462,3.498C8.349,3.498 2.577,8.978 2.577,15.73C2.577,22.482 8.349,27.962 15.462,27.962C22.574,27.962 28.346,22.482 28.346,15.73C28.346,8.978 22.574,3.498 15.462,3.498ZM9.109,23.411C9.663,22.311 13.039,21.234 15.462,21.234C17.884,21.234 21.272,22.311 21.814,23.411C20.061,24.732 17.858,25.515 15.462,25.515C13.065,25.515 10.862,24.732 9.109,23.411ZM23.656,21.638C21.814,19.51 17.343,18.788 15.462,18.788C13.58,18.788 9.109,19.51 7.267,21.638C5.953,19.999 5.154,17.956 5.154,15.73C5.154,10.336 9.779,5.944 15.462,5.944C21.144,5.944 25.769,10.336 25.769,15.73C25.769,17.956 24.97,19.999 23.656,21.638L23.656,21.638ZM15.462,8.391C12.962,8.391 10.952,10.299 10.952,12.672C10.952,15.045 12.962,16.953 15.462,16.953C17.961,16.953 19.971,15.045 19.971,12.672C19.971,10.299 17.961,8.391 15.462,8.391ZM15.462,14.507C14.392,14.507 13.529,13.687 13.529,12.672C13.529,11.657 14.392,10.837 15.462,10.837C16.531,10.837 17.394,11.657 17.394,12.672C17.394,13.687 16.531,14.507 15.462,14.507Z" fill="#E34B59"/>
</svg>
