<svg width="32" height="32" viewBox="0 0 32 32" fill="none" xmlns="http://www.w3.org/2000/svg" xmlns:xlink="http://www.w3.org/1999/xlink">
<g opacity="0.6">
<path d="M12.767,24.753C15.539,24.753 18.096,23.857 20.188,22.363L28.057,30.232C28.422,30.597 28.903,30.78 29.418,30.78C30.497,30.78 31.261,29.95 31.261,28.887C31.261,28.389 31.095,27.908 30.729,27.559L22.91,19.723C24.554,17.565 25.533,14.892 25.533,11.987C25.533,4.964 19.789,-0.78 12.767,-0.78C5.761,-0.78 0,4.948 0,11.987C0,19.009 5.744,24.753 12.767,24.753ZM12.767,21.998C7.288,21.998 2.756,17.465 2.756,11.987C2.756,6.508 7.288,1.976 12.767,1.976C18.245,1.976 22.777,6.508 22.777,11.987C22.777,17.465 18.245,21.998 12.767,21.998Z" fill="#FFFFFF"/>
</g>
</svg>
