<svg width="32" height="32" viewBox="0 0 32 32" fill="none" xmlns="http://www.w3.org/2000/svg" xmlns:xlink="http://www.w3.org/1999/xlink">
<g opacity="0.6">
<path d="M12.767,25.753C15.539,25.753 18.096,24.857 20.188,23.363L28.057,31.232C28.422,31.597 28.903,31.78 29.418,31.78C30.497,31.78 31.261,30.95 31.261,29.887C31.261,29.389 31.095,28.908 30.729,28.559L22.91,20.723C24.554,18.565 25.533,15.892 25.533,12.987C25.533,5.964 19.789,0.22 12.767,0.22C5.761,0.22 0,5.948 0,12.987C0,20.009 5.744,25.753 12.767,25.753ZM12.767,22.998C7.288,22.998 2.756,18.465 2.756,12.987C2.756,7.508 7.288,2.976 12.767,2.976C18.245,2.976 22.777,7.508 22.777,12.987C22.777,18.465 18.245,22.998 12.767,22.998Z" fill="#FFFFFF"/>
</g>
</svg>
