<svg width="824" height="150" viewBox="0 0 824 150" fill="none" xmlns="http://www.w3.org/2000/svg" xmlns:xlink="http://www.w3.org/1999/xlink">
<g filter="url(#filter6_492)">
<rect  x="0" y="23.579" width="824" height="126.421" rx="200" fill="#000000"/>
</g>
<g filter="url(#filter6_493)">
<rect  x="331.344" y="0.937" width="147.233" height="131.082" rx="59.5" fill="#211C1C" stroke="#E34B59" stroke-width="0.5" stroke-miterlimit="3.999327"/>
</g>
<rect  x="365.323" y="37.353" width="28" height="28" rx="4" stroke="#F2F2F7" stroke-width="2" stroke-miterlimit="3.999327" stroke-linecap="round"/>
<rect  x="365.323" y="81.353" width="28" height="28" rx="4" stroke="#F2F2F7" stroke-width="2" stroke-miterlimit="3.999327" stroke-linecap="round"/>
<rect  x="409.323" y="37.353" width="28" height="28" rx="4" stroke="#F2F2F7" stroke-width="2" stroke-miterlimit="3.999327" stroke-linecap="round"/>
<line x1="423.323" y1="83.354" x2="423.323" y2="111.355" stroke="#FF6961" stroke-width="2" stroke-miterlimit="3.999327" stroke-linecap="round"/>
<line x1="439.323" y1="95.353" x2="411.322" y2="95.353" stroke="#FF6961" stroke-width="2" stroke-miterlimit="3.999327" stroke-linecap="round"/>
<path d="M693.931,73.581C693.931,77.687 689.984,81.488 684.487,81.488L684.487,85.487C691.631,85.487 697.931,80.418 697.931,73.581L693.931,73.581ZM684.487,81.488C678.99,81.488 675.042,77.687 675.042,73.581L671.042,73.581C671.042,80.418 677.342,85.487 684.487,85.487L684.487,81.488ZM675.042,73.581C675.042,69.476 678.99,65.675 684.487,65.675L684.487,61.675C677.342,61.675 671.042,66.745 671.042,73.581L675.042,73.581ZM684.487,65.675C689.984,65.675 693.931,69.476 693.931,73.581L697.931,73.581C697.931,66.745 691.631,61.675 684.487,61.675L684.487,65.675Z" fill="#F2F2F7"/>
<path d="M716.82,80.186C716.82,95.233 702.625,107.904 684.487,107.904L684.487,111.904C704.272,111.904 720.82,97.964 720.82,80.186L716.82,80.186ZM684.487,107.904C666.349,107.904 652.153,95.233 652.153,80.186L648.153,80.186C648.153,97.964 664.701,111.904 684.487,111.904L684.487,107.904ZM652.153,80.186C652.153,65.139 666.349,52.467 684.487,52.467L684.487,48.467C664.701,48.467 648.153,62.407 648.153,80.186L652.153,80.186ZM684.487,52.467C702.625,52.467 716.82,65.139 716.82,80.186L720.82,80.186C720.82,62.407 704.272,48.467 684.487,48.467L684.487,52.467Z" fill="#F2F2F7"/>
<path d="M705.509,103.046C705.905,104.077 707.063,104.592 708.093,104.195C709.124,103.799 709.639,102.641 709.242,101.61L705.509,103.046ZM659.731,101.61C659.335,102.641 659.849,103.799 660.88,104.195C661.911,104.592 663.068,104.077 663.465,103.046L659.731,101.61ZM709.242,101.61C707.68,97.549 704.308,94.12 699.855,91.739L697.969,95.267C701.793,97.311 704.371,100.087 705.509,103.046L709.242,101.61ZM699.855,91.739C695.395,89.355 689.995,88.091 684.487,88.091L684.487,92.091C689.411,92.091 694.152,93.226 697.969,95.267L699.855,91.739ZM684.487,88.091C678.979,88.091 673.578,89.355 669.118,91.739L671.004,95.267C674.821,93.226 679.562,92.091 684.487,92.091L684.487,88.091ZM669.118,91.739C664.665,94.12 661.293,97.549 659.731,101.61L663.465,103.046C664.603,100.087 667.181,97.311 671.004,95.267L669.118,91.739Z" fill="#F2F2F7"/>
<path d="M113.718,64.821L114.91,66.428L114.91,66.428L113.718,64.821ZM143.51,64.821L142.318,66.428L142.318,66.428L143.51,64.821ZM147.324,67.652L148.516,66.045L148.516,66.045L147.324,67.652ZM109.903,67.652L108.711,66.045L108.711,66.045L109.903,67.652ZM153.317,82.694L153.317,96.696L157.317,96.696L157.317,82.694L153.317,82.694ZM140.058,107.904L117.169,107.904L117.169,111.904L140.058,111.904L140.058,107.904ZM103.91,96.696L103.91,82.694L99.91,82.694L99.91,96.696L103.91,96.696ZM111.095,69.258L114.91,66.428L112.526,63.215L108.711,66.045L111.095,69.258ZM142.318,66.428L146.133,69.258L148.516,66.045L144.701,63.215L142.318,66.428ZM114.91,66.428C118.502,63.762 121.058,61.87 123.236,60.625C125.364,59.408 126.964,58.911 128.614,58.911L128.614,54.911C126.03,54.911 123.736,55.731 121.251,57.152C118.817,58.543 116.042,60.607 112.526,63.215L114.91,66.428ZM144.701,63.215C141.186,60.607 138.41,58.543 135.976,57.152C133.491,55.731 131.198,54.911 128.614,54.911L128.614,58.911C130.263,58.911 131.864,59.408 133.991,60.625C136.17,61.87 138.725,63.762 142.318,66.428L144.701,63.215ZM117.169,107.904C113.524,107.904 110.964,107.901 109.029,107.676C107.125,107.454 106.133,107.046 105.454,106.458L102.836,109.482C104.392,110.829 106.315,111.387 108.566,111.649C110.787,111.908 113.622,111.904 117.169,111.904L117.169,107.904ZM99.91,96.696C99.91,99.744 99.904,102.262 100.213,104.25C100.536,106.327 101.238,108.1 102.836,109.482L105.454,106.458C104.816,105.906 104.402,105.155 104.166,103.636C103.916,102.026 103.91,99.874 103.91,96.696L99.91,96.696ZM153.317,96.696C153.317,99.874 153.312,102.026 153.062,103.636C152.826,105.155 152.411,105.906 151.774,106.458L154.392,109.482C155.989,108.1 156.692,106.327 157.014,104.25C157.323,102.262 157.317,99.744 157.317,96.696L153.317,96.696ZM140.058,111.904C143.606,111.904 146.441,111.908 148.661,111.649C150.913,111.387 152.836,110.829 154.392,109.482L151.774,106.458C151.095,107.046 150.102,107.454 148.199,107.676C146.264,107.901 143.704,107.904 140.058,107.904L140.058,111.904ZM157.317,82.694C157.317,78.413 157.371,75.572 156.037,73.06L152.504,74.937C153.264,76.367 153.317,78.009 153.317,82.694L157.317,82.694ZM146.133,69.258C148.125,70.736 149.523,71.775 150.562,72.685C151.578,73.575 152.138,74.247 152.504,74.937L156.037,73.06C155.356,71.78 154.409,70.737 153.197,69.676C152.008,68.634 150.457,67.485 148.516,66.045L146.133,69.258ZM103.91,82.694C103.91,78.009 103.964,76.367 104.723,74.937L101.191,73.06C99.856,75.572 99.91,78.413 99.91,82.694L103.91,82.694ZM108.711,66.045C106.771,67.485 105.219,68.634 104.03,69.676C102.818,70.737 101.871,71.78 101.191,73.06L104.723,74.937C105.09,74.247 105.65,73.575 106.666,72.685C107.705,71.775 109.103,70.736 111.095,69.258L108.711,66.045Z" fill="#F2F2F7"/>
<path d="M136.151,109.904C136.151,111.008 137.046,111.904 138.151,111.904C139.255,111.904 140.151,111.008 140.151,109.904L136.151,109.904ZM117.077,109.904C117.077,111.008 117.972,111.904 119.077,111.904C120.181,111.904 121.077,111.008 121.077,109.904L117.077,109.904ZM123.077,92.091L134.151,92.091L134.151,88.091L123.077,88.091L123.077,92.091ZM136.151,94.091L136.151,109.904L140.151,109.904L140.151,94.091L136.151,94.091ZM117.077,94.091L117.077,109.904L121.077,109.904L121.077,94.091L117.077,94.091ZM134.151,92.091C135.255,92.091 136.151,92.987 136.151,94.091L140.151,94.091C140.151,90.778 137.465,88.091 134.151,88.091L134.151,92.091ZM123.077,88.091C119.763,88.091 117.077,90.778 117.077,94.091L121.077,94.091C121.077,92.987 121.972,92.091 123.077,92.091L123.077,88.091Z" fill="#F2F2F7"/>
<defs>
<filter id="filter6_492" x="0" y="23.579102" width="413" height="65.21059" filterUnits="userSpaceOnUse" color-interpolation-filters="sRGB">
<feFlood flood-opacity="0" result="BackgroundImageFix"/>
<feBlend mode="normal" in="SourceGraphic" in2="BackgroundImageFix" result="shape"/>
<feColorMatrix in="SourceAlpha" type="matrix" values="0 0 0 0 0 0 0 0 0 0 0 0 0 0 0 0 0 0 127 0" result="hardAlpha"/>
<feMorphology radius="-7" operator="erode" in="SourceAlpha" result="0innershadow"/>
<feOffset dx="1" dy="2"/>
<feGaussianBlur stdDeviation="7"/>
<feComposite in2="hardAlpha" operator="arithmetic" k2="-1" k3="1"/>
<feColorMatrix type="matrix" values="0 0 0 0 1 0 0 0 0 1 0 0 0 0 1 0 0 0 1 0"/>
<feBlend mode="normal" in2="shape" result="0innershadow"/>
</filter>
<filter id="filter6_493" x="331.343872" y="0.936523" width="76.116402" height="69.040916" filterUnits="userSpaceOnUse" color-interpolation-filters="sRGB">
<feFlood flood-opacity="0" result="BackgroundImageFix"/>
<feBlend mode="normal" in="SourceGraphic" in2="BackgroundImageFix" result="shape"/>
<feColorMatrix in="SourceAlpha" type="matrix" values="0 0 0 0 0 0 0 0 0 0 0 0 0 0 0 0 0 0 127 0" result="hardAlpha"/>
<feMorphology radius="-6" operator="erode" in="SourceAlpha" result="0innershadow"/>
<feOffset dx="2" dy="3"/>
<feGaussianBlur stdDeviation="3.5"/>
<feComposite in2="hardAlpha" operator="arithmetic" k2="-1" k3="1"/>
<feColorMatrix type="matrix" values="0 0 0 0 1 0 0 0 0 1 0 0 0 0 1 0 0 0 1 0"/>
<feBlend mode="normal" in2="shape" result="0innershadow"/>
</filter>
</defs>
</svg>
