<svg width="756" height="146" viewBox="0 0 756 146" fill="none" xmlns="http://www.w3.org/2000/svg" xmlns:xlink="http://www.w3.org/1999/xlink">
<g filter="url(#filter6_842)">
<rect  x="0" y="22.159" width="756" height="123.841" rx="200" fill="#000000"/>
</g>
<g filter="url(#filter6_843)">
<rect  x="304" y="-0.021" width="135" height="128.386" rx="59.5" fill="#211C1C" stroke="#E34B59" stroke-width="0.5" stroke-miterlimit="3.999327"/>
</g>
<rect  x="336" y="35.856" width="28" height="28" rx="4" stroke="#F2F2F7" stroke-width="2" stroke-miterlimit="3.999327" stroke-linecap="round"/>
<rect  x="336" y="79.856" width="28" height="28" rx="4" stroke="#F2F2F7" stroke-width="2" stroke-miterlimit="3.999327" stroke-linecap="round"/>
<rect  x="380" y="35.856" width="28" height="28" rx="4" stroke="#F2F2F7" stroke-width="2" stroke-miterlimit="3.999327" stroke-linecap="round"/>
<line x1="394" y1="81.857" x2="394" y2="109.858" stroke="#FF6961" stroke-width="2" stroke-miterlimit="3.999327" stroke-linecap="round"/>
<line x1="410" y1="93.856" x2="382" y2="93.856" stroke="#FF6961" stroke-width="2" stroke-miterlimit="3.999327" stroke-linecap="round"/>
<path d="M636.5,71.141C636.5,75.25 632.846,78.845 628,78.845L628,82.845C634.752,82.845 640.5,77.75 640.5,71.141L636.5,71.141ZM628,78.845C623.154,78.845 619.5,75.25 619.5,71.141L615.5,71.141C615.5,77.75 621.248,82.845 628,82.845L628,78.845ZM619.5,71.141C619.5,67.032 623.154,63.437 628,63.437L628,59.437C621.248,59.437 615.5,64.532 615.5,71.141L619.5,71.141ZM628,63.437C632.846,63.437 636.5,67.032 636.5,71.141L640.5,71.141C640.5,64.532 634.752,59.437 628,59.437L628,63.437Z" fill="#F2F2F7"/>
<path d="M657.5,77.611C657.5,92.438 644.444,104.722 628,104.722L628,108.722C646.35,108.722 661.5,94.939 661.5,77.611L657.5,77.611ZM628,104.722C611.556,104.722 598.5,92.438 598.5,77.611L594.5,77.611C594.5,94.939 609.65,108.722 628,108.722L628,104.722ZM598.5,77.611C598.5,62.782 611.556,50.499 628,50.499L628,46.499C609.65,46.499 594.5,60.282 594.5,77.611L598.5,77.611ZM628,50.499C644.444,50.499 657.5,62.782 657.5,77.611L661.5,77.611C661.5,60.282 646.35,46.499 628,46.499L628,50.499Z" fill="#F2F2F7"/>
<path d="M647.118,99.979C647.493,101.018 648.639,101.557 649.678,101.183C650.717,100.809 651.256,99.663 650.882,98.624L647.118,99.979ZM605.118,98.624C604.744,99.663 605.283,100.809 606.322,101.183C607.361,101.557 608.507,101.018 608.882,99.979L605.118,98.624ZM650.882,98.624C649.451,94.653 646.352,91.274 642.226,88.919L640.243,92.393C643.712,94.373 646.071,97.072 647.118,99.979L650.882,98.624ZM642.226,88.919C638.099,86.563 633.1,85.314 628,85.314L628,89.314C632.472,89.314 636.777,90.414 640.243,92.393L642.226,88.919ZM628,85.314C622.9,85.314 617.901,86.563 613.774,88.919L615.757,92.393C619.223,90.414 623.528,89.314 628,89.314L628,85.314ZM613.774,88.919C609.648,91.274 606.549,94.653 605.118,98.624L608.882,99.979C609.929,97.072 612.288,94.373 615.757,92.393L613.774,88.919Z" fill="#F2F2F7"/>
<path d="M104.333,62.559L105.575,64.127L105.575,64.127L104.333,62.559ZM131.667,62.559L130.425,64.127L130.425,64.127L131.667,62.559ZM135.167,65.332L136.409,63.764L136.409,63.764L135.167,65.332ZM100.833,65.332L99.592,63.764L99.592,63.764L100.833,65.332ZM140.5,80.067L140.5,93.784L144.5,93.784L144.5,80.067L140.5,80.067ZM128.5,104.722L107.5,104.722L107.5,108.722L128.5,108.722L128.5,104.722ZM95.5,93.784L95.5,80.067L91.5,80.067L91.5,93.784L95.5,93.784ZM102.075,66.9L105.575,64.127L103.092,60.992L99.592,63.764L102.075,66.9ZM130.425,64.127L133.925,66.9L136.409,63.764L132.909,60.992L130.425,64.127ZM105.575,64.127C108.875,61.513 111.21,59.667 113.198,58.454C115.135,57.272 116.557,56.81 118,56.81L118,52.81C115.559,52.81 113.408,53.64 111.114,55.04C108.869,56.41 106.313,58.439 103.092,60.992L105.575,64.127ZM132.909,60.992C129.687,58.439 127.131,56.41 124.886,55.04C122.592,53.64 120.441,52.81 118,52.81L118,56.81C119.443,56.81 120.865,57.272 122.802,58.454C124.79,59.667 127.125,61.513 130.425,64.127L132.909,60.992ZM107.5,104.722C104.148,104.722 101.82,104.719 100.066,104.501C98.354,104.288 97.495,103.901 96.908,103.359L94.193,106.296C95.656,107.648 97.472,108.209 99.572,108.47C101.631,108.726 104.253,108.722 107.5,108.722L107.5,104.722ZM91.5,93.784C91.5,96.772 91.495,99.231 91.777,101.17C92.07,103.184 92.707,104.923 94.193,106.296L96.908,103.359C96.343,102.837 95.955,102.104 95.735,100.594C95.505,99.01 95.5,96.894 95.5,93.784L91.5,93.784ZM140.5,93.784C140.5,96.894 140.495,99.01 140.265,100.594C140.045,102.104 139.657,102.837 139.092,103.359L141.807,106.296C143.293,104.923 143.93,103.184 144.223,101.17C144.505,99.231 144.5,96.772 144.5,93.784L140.5,93.784ZM128.5,108.722C131.747,108.722 134.369,108.726 136.428,108.47C138.528,108.209 140.344,107.648 141.807,106.296L139.092,103.359C138.505,103.901 137.646,104.288 135.934,104.501C134.18,104.719 131.852,104.722 128.5,104.722L128.5,108.722ZM144.5,80.067C144.5,75.869 144.549,73.107 143.33,70.658L139.749,72.44C140.451,73.852 140.5,75.482 140.5,80.067L144.5,80.067ZM133.925,66.9C137.687,69.88 139.035,71.005 139.749,72.44L143.33,70.658C142.123,68.233 139.863,66.5 136.409,63.764L133.925,66.9ZM95.5,80.067C95.5,75.482 95.549,73.852 96.251,72.44L92.67,70.658C91.451,73.107 91.5,75.869 91.5,80.067L95.5,80.067ZM99.592,63.764C96.137,66.5 93.877,68.233 92.67,70.658L96.251,72.44C96.965,71.005 98.313,69.88 102.075,66.9L99.592,63.764Z" fill="#F2F2F7"/>
<path d="M124.75,106.722C124.75,107.827 125.645,108.722 126.75,108.722C127.855,108.722 128.75,107.827 128.75,106.722L124.75,106.722ZM107.25,106.722C107.25,107.827 108.145,108.722 109.25,108.722C110.355,108.722 111.25,107.827 111.25,106.722L107.25,106.722ZM113.25,89.314L122.75,89.314L122.75,85.314L113.25,85.314L113.25,89.314ZM124.75,91.314L124.75,106.722L128.75,106.722L128.75,91.314L124.75,91.314ZM107.25,91.314L107.25,106.722L111.25,106.722L111.25,91.314L107.25,91.314ZM122.75,89.314C123.855,89.314 124.75,90.209 124.75,91.314L128.75,91.314C128.75,88 126.064,85.314 122.75,85.314L122.75,89.314ZM113.25,85.314C109.936,85.314 107.25,88 107.25,91.314L111.25,91.314C111.25,90.209 112.145,89.314 113.25,89.314L113.25,85.314Z" fill="#F2F2F7"/>
<defs>
<filter id="filter6_842" x="0" y="22.15918" width="379" height="63.920578" filterUnits="userSpaceOnUse" color-interpolation-filters="sRGB">
<feFlood flood-opacity="0" result="BackgroundImageFix"/>
<feBlend mode="normal" in="SourceGraphic" in2="BackgroundImageFix" result="shape"/>
<feColorMatrix in="SourceAlpha" type="matrix" values="0 0 0 0 0 0 0 0 0 0 0 0 0 0 0 0 0 0 127 0" result="hardAlpha"/>
<feMorphology radius="-7" operator="erode" in="SourceAlpha" result="0innershadow"/>
<feOffset dx="1" dy="2"/>
<feGaussianBlur stdDeviation="7"/>
<feComposite in2="hardAlpha" operator="arithmetic" k2="-1" k3="1"/>
<feColorMatrix type="matrix" values="0 0 0 0 1 0 0 0 0 1 0 0 0 0 1 0 0 0 1 0"/>
<feBlend mode="normal" in2="shape" result="0innershadow"/>
</filter>
<filter id="filter6_843" x="304" y="-0.021484" width="70" height="67.693138" filterUnits="userSpaceOnUse" color-interpolation-filters="sRGB">
<feFlood flood-opacity="0" result="BackgroundImageFix"/>
<feBlend mode="normal" in="SourceGraphic" in2="BackgroundImageFix" result="shape"/>
<feColorMatrix in="SourceAlpha" type="matrix" values="0 0 0 0 0 0 0 0 0 0 0 0 0 0 0 0 0 0 127 0" result="hardAlpha"/>
<feMorphology radius="-6" operator="erode" in="SourceAlpha" result="0innershadow"/>
<feOffset dx="2" dy="3"/>
<feGaussianBlur stdDeviation="3.5"/>
<feComposite in2="hardAlpha" operator="arithmetic" k2="-1" k3="1"/>
<feColorMatrix type="matrix" values="0 0 0 0 1 0 0 0 0 1 0 0 0 0 1 0 0 0 1 0"/>
<feBlend mode="normal" in2="shape" result="0innershadow"/>
</filter>
</defs>
</svg>
