<svg width="756" height="142" viewBox="0 0 756 142" fill="none" xmlns="http://www.w3.org/2000/svg" xmlns:xlink="http://www.w3.org/1999/xlink">
<g filter="url(#filter6_974)">
<rect  x="0" y="22.384" width="756" height="119.616" rx="200" fill="#000000"/>
</g>
<g filter="url(#filter6_975)">
<rect  x="304" y="-0.4" width="135" height="131.907" rx="59.5" fill="#211C1C" stroke="#E34B59" stroke-width="0.5" stroke-miterlimit="3.999327"/>
</g>
<rect  x="336" y="36.181" width="28" height="28" rx="4" stroke="#F2F2F7" stroke-width="2" stroke-miterlimit="3.999327" stroke-linecap="round"/>
<rect  x="336" y="80.181" width="28" height="28" rx="4" stroke="#F2F2F7" stroke-width="2" stroke-miterlimit="3.999327" stroke-linecap="round"/>
<rect  x="380" y="36.181" width="28" height="28" rx="4" stroke="#F2F2F7" stroke-width="2" stroke-miterlimit="3.999327" stroke-linecap="round"/>
<line x1="394" y1="82.182" x2="394" y2="110.183" stroke="#FF6961" stroke-width="2" stroke-miterlimit="3.999327" stroke-linecap="round"/>
<line x1="410" y1="94.181" x2="382" y2="94.181" stroke="#FF6961" stroke-width="2" stroke-miterlimit="3.999327" stroke-linecap="round"/>
<path d="M654.5,67.003C654.5,71.307 650.794,74.971 646,74.971L646,78.971C652.804,78.971 658.5,73.709 658.5,67.003L654.5,67.003ZM646,74.971C641.206,74.971 637.5,71.307 637.5,67.003L633.5,67.003C633.5,73.709 639.196,78.971 646,78.971L646,74.971ZM637.5,67.003C637.5,62.699 641.206,59.035 646,59.035L646,55.035C639.196,55.035 633.5,60.296 633.5,67.003L637.5,67.003ZM646,59.035C650.794,59.035 654.5,62.699 654.5,67.003L658.5,67.003C658.5,60.296 652.804,55.035 646,55.035L646,59.035Z" fill="#F2F2F7"/>
<path d="M675.5,73.648C675.5,88.962 662.392,101.552 646,101.552L646,105.552C664.402,105.552 679.5,91.365 679.5,73.648L675.5,73.648ZM646,101.552C629.608,101.552 616.5,88.962 616.5,73.648L612.5,73.648C612.5,91.365 627.598,105.552 646,105.552L646,101.552ZM616.5,73.648C616.5,58.333 629.608,45.744 646,45.744L646,41.744C627.598,41.744 612.5,55.931 612.5,73.648L616.5,73.648ZM646,45.744C662.392,45.744 675.5,58.333 675.5,73.648L679.5,73.648C679.5,55.931 664.402,41.744 646,41.744L646,45.744Z" fill="#F2F2F7"/>
<path d="M665.113,96.591C665.478,97.633 666.619,98.182 667.662,97.817C668.704,97.451 669.253,96.31 668.887,95.267L665.113,96.591ZM623.113,95.267C622.747,96.31 623.296,97.451 624.338,97.817C625.381,98.182 626.522,97.633 626.887,96.591L623.113,95.267ZM668.887,95.267C667.465,91.212 664.377,87.745 660.247,85.324L658.223,88.774C661.687,90.805 664.057,93.582 665.113,96.591L668.887,95.267ZM660.247,85.324C656.116,82.902 651.109,81.616 646,81.616L646,85.616C650.462,85.616 654.76,86.743 658.223,88.774L660.247,85.324ZM646,81.616C640.891,81.616 635.884,82.902 631.753,85.324L633.777,88.774C637.24,86.743 641.538,85.616 646,85.616L646,81.616ZM631.753,85.324C627.623,87.745 624.535,91.212 623.113,95.267L626.887,96.591C627.943,93.582 630.313,90.805 633.777,88.774L631.753,85.324Z" fill="#F2F2F7"/>
<path d="M104.333,58.187L105.596,59.738L105.596,59.738L104.333,58.187ZM131.667,58.187L130.404,59.738L130.404,59.738L131.667,58.187ZM135.167,61.035L136.429,59.484L136.429,59.484L135.167,61.035ZM100.833,61.035L99.571,59.484L99.571,59.484L100.833,61.035ZM140.5,76.172L140.5,90.261L144.5,90.261L144.5,76.172L140.5,76.172ZM128.5,101.552L107.5,101.552L107.5,105.552L128.5,105.552L128.5,101.552ZM95.5,90.261L95.5,76.172L91.5,76.172L91.5,90.261L95.5,90.261ZM102.096,62.586L105.596,59.738L103.071,56.636L99.571,59.484L102.096,62.586ZM130.404,59.738L133.904,62.586L136.429,59.484L132.929,56.636L130.404,59.738ZM105.596,59.738C108.896,57.053 111.231,55.157 113.218,53.912C115.156,52.696 116.571,52.227 118,52.227L118,48.227C115.545,48.227 113.387,49.084 111.093,50.523C108.848,51.93 106.293,54.014 103.071,56.636L105.596,59.738ZM132.929,56.636C129.707,54.014 127.152,51.93 124.907,50.523C122.613,49.084 120.455,48.227 118,48.227L118,52.227C119.429,52.227 120.844,52.696 122.782,53.912C124.769,55.157 127.104,57.053 130.404,59.738L132.929,56.636ZM107.5,101.552C104.146,101.552 101.822,101.548 100.072,101.325C98.37,101.107 97.516,100.714 96.927,100.155L94.173,103.056C95.635,104.444 97.456,105.023 99.566,105.292C101.628,105.556 104.254,105.552 107.5,105.552L107.5,101.552ZM91.5,90.261C91.5,93.334 91.495,95.851 91.776,97.833C92.067,99.884 92.697,101.654 94.173,103.056L96.927,100.155C96.354,99.61 95.959,98.841 95.737,97.272C95.505,95.636 95.5,93.453 95.5,90.261L91.5,90.261ZM140.5,90.261C140.5,93.453 140.495,95.636 140.263,97.272C140.041,98.841 139.646,99.61 139.073,100.155L141.827,103.056C143.303,101.654 143.933,99.884 144.224,97.833C144.505,95.851 144.5,93.334 144.5,90.261L140.5,90.261ZM128.5,105.552C131.746,105.552 134.372,105.556 136.434,105.292C138.544,105.023 140.365,104.444 141.827,103.056L139.073,100.155C138.484,100.714 137.63,101.107 135.928,101.325C134.178,101.548 131.854,101.552 128.5,101.552L128.5,105.552ZM144.5,76.172C144.5,71.85 144.547,69.042 143.339,66.55L139.739,68.294C140.453,69.768 140.5,71.47 140.5,76.172L144.5,76.172ZM133.904,62.586C137.661,65.644 139.018,66.805 139.739,68.294L143.339,66.55C142.139,64.073 139.888,62.299 136.429,59.484L133.904,62.586ZM95.5,76.172C95.5,71.47 95.546,69.768 96.26,68.294L92.661,66.55C91.454,69.042 91.5,71.85 91.5,76.172L95.5,76.172ZM99.571,59.484C96.112,62.299 93.861,64.073 92.661,66.55L96.26,68.294C96.982,66.805 98.339,65.644 102.096,62.586L99.571,59.484Z" fill="#F2F2F7"/>
<path d="M124.75,103.552C124.75,104.656 125.645,105.552 126.75,105.552C127.855,105.552 128.75,104.656 128.75,103.552L124.75,103.552ZM107.25,103.552C107.25,104.656 108.145,105.552 109.25,105.552C110.355,105.552 111.25,104.656 111.25,103.552L107.25,103.552ZM113.25,85.616L122.75,85.616L122.75,81.616L113.25,81.616L113.25,85.616ZM124.75,87.616L124.75,103.552L128.75,103.552L128.75,87.616L124.75,87.616ZM107.25,87.616L107.25,103.552L111.25,103.552L111.25,87.616L107.25,87.616ZM122.75,85.616C123.855,85.616 124.75,86.511 124.75,87.616L128.75,87.616C128.75,84.302 126.064,81.616 122.75,81.616L122.75,85.616ZM113.25,81.616C109.936,81.616 107.25,84.302 107.25,87.616L111.25,87.616C111.25,86.511 112.145,85.616 113.25,85.616L113.25,81.616Z" fill="#F2F2F7"/>
<defs>
<filter id="filter6_974" x="0" y="22.383789" width="380" height="61.808201" filterUnits="userSpaceOnUse" color-interpolation-filters="sRGB">
<feFlood flood-opacity="0" result="BackgroundImageFix"/>
<feBlend mode="normal" in="SourceGraphic" in2="BackgroundImageFix" result="shape"/>
<feColorMatrix in="SourceAlpha" type="matrix" values="0 0 0 0 0 0 0 0 0 0 0 0 0 0 0 0 0 0 127 0" result="hardAlpha"/>
<feMorphology radius="-7" operator="erode" in="SourceAlpha" result="0innershadow"/>
<feOffset dx="2" dy="2"/>
<feGaussianBlur stdDeviation="7"/>
<feComposite in2="hardAlpha" operator="arithmetic" k2="-1" k3="1"/>
<feColorMatrix type="matrix" values="0 0 0 0 1 0 0 0 0 1 0 0 0 0 1 0 0 0 1 0"/>
<feBlend mode="normal" in2="shape" result="0innershadow"/>
</filter>
<filter id="filter6_975" x="304" y="-0.400391" width="70" height="69.45356" filterUnits="userSpaceOnUse" color-interpolation-filters="sRGB">
<feFlood flood-opacity="0" result="BackgroundImageFix"/>
<feBlend mode="normal" in="SourceGraphic" in2="BackgroundImageFix" result="shape"/>
<feColorMatrix in="SourceAlpha" type="matrix" values="0 0 0 0 0 0 0 0 0 0 0 0 0 0 0 0 0 0 127 0" result="hardAlpha"/>
<feMorphology radius="-6" operator="erode" in="SourceAlpha" result="0innershadow"/>
<feOffset dx="2" dy="3"/>
<feGaussianBlur stdDeviation="3.5"/>
<feComposite in2="hardAlpha" operator="arithmetic" k2="-1" k3="1"/>
<feColorMatrix type="matrix" values="0 0 0 0 1 0 0 0 0 1 0 0 0 0 1 0 0 0 1 0"/>
<feBlend mode="normal" in2="shape" result="0innershadow"/>
</filter>
</defs>
</svg>
