<svg width="756" height="150" viewBox="0 0 756 150" fill="none" xmlns="http://www.w3.org/2000/svg" xmlns:xlink="http://www.w3.org/1999/xlink">
<g filter="url(#filter6_1400)">
<rect  x="0" y="24" width="756" height="126" rx="200" fill="#000000"/>
</g>
<g filter="url(#filter6_1401)">
<rect  x="304" y="0" width="135" height="139" rx="59.5" fill="#211C1C" stroke="#E34B59" stroke-width="0.5" stroke-miterlimit="3.999327"/>
</g>
<rect  x="336" y="38" width="28" height="28" rx="4" stroke="#F2F2F7" stroke-width="2" stroke-miterlimit="3.999327" stroke-linecap="round"/>
<rect  x="336" y="82" width="28" height="28" rx="4" stroke="#F2F2F7" stroke-width="2" stroke-miterlimit="3.999327" stroke-linecap="round"/>
<rect  x="380" y="38" width="28" height="28" rx="4" stroke="#F2F2F7" stroke-width="2" stroke-miterlimit="3.999327" stroke-linecap="round"/>
<line x1="394" y1="84.001" x2="394" y2="112.002" stroke="#FF6961" stroke-width="2" stroke-miterlimit="3.999327" stroke-linecap="round"/>
<line x1="410" y1="96" x2="382" y2="96" stroke="#FF6961" stroke-width="2" stroke-miterlimit="3.999327" stroke-linecap="round"/>
<circle cx="640" cy="81" r="10.5" stroke="#F2F2F7" stroke-width="2" stroke-miterlimit="3.999327" stroke-linecap="round"/>
<circle cx="640" cy="88" r="31.5" stroke="#F2F2F7" stroke-width="2" stroke-miterlimit="3.999327"/>
<path d="M659.102,112.102C659.451,113.15 660.584,113.717 661.632,113.368C662.68,113.019 663.246,111.887 662.898,110.839L659.102,112.102ZM617.102,110.839C616.753,111.887 617.32,113.019 618.368,113.368C619.416,113.717 620.549,113.15 620.898,112.102L617.102,110.839ZM662.898,110.839C661.491,106.612 658.423,102.97 654.286,100.415L652.184,103.818C655.64,105.953 658.032,108.887 659.102,112.102L662.898,110.839ZM654.286,100.415C650.15,97.86 645.129,96.5 640,96.5L640,100.5C644.443,100.5 648.726,101.682 652.184,103.818L654.286,100.415ZM640,96.5C634.871,96.5 629.85,97.86 625.714,100.415L627.816,103.818C631.274,101.682 635.557,100.5 640,100.5L640,96.5ZM625.714,100.415C621.577,102.97 618.509,106.612 617.102,110.839L620.898,112.102C621.968,108.887 624.36,105.953 627.816,103.818L625.714,100.415Z" fill="#F2F2F7"/>
<path d="M104.333,71.714L105.635,73.233L105.635,73.233L104.333,71.714ZM131.667,71.714L130.365,73.233L130.365,73.233L131.667,71.714ZM135.167,74.714L136.468,73.196L136.468,73.196L135.167,74.714ZM100.833,74.714L99.532,73.196L99.532,73.196L100.833,74.714ZM140.5,90.659L140.5,105.5L144.5,105.5L144.5,90.659L140.5,90.659ZM128.5,117.5L107.5,117.5L107.5,121.5L128.5,121.5L128.5,117.5ZM95.5,105.5L95.5,90.659L91.5,90.659L91.5,105.5L95.5,105.5ZM102.135,76.233L105.635,73.233L103.032,70.196L99.532,73.196L102.135,76.233ZM130.365,73.233L133.865,76.233L136.468,73.196L132.968,70.196L130.365,73.233ZM105.635,73.233C108.935,70.404 111.271,68.406 113.258,67.094C115.198,65.813 116.598,65.329 118,65.329L118,61.329C115.517,61.329 113.345,62.243 111.053,63.756C108.809,65.239 106.253,67.434 103.032,70.196L105.635,73.233ZM132.968,70.196C129.747,67.434 127.191,65.239 124.947,63.756C122.655,62.243 120.483,61.329 118,61.329L118,65.329C119.402,65.329 120.802,65.813 122.742,67.094C124.729,68.406 127.065,70.404 130.365,73.233L132.968,70.196ZM107.5,117.5C104.144,117.5 101.828,117.496 100.086,117.261C98.401,117.035 97.556,116.627 96.964,116.035L94.136,118.864C95.595,120.323 97.425,120.94 99.553,121.226C101.623,121.504 104.257,121.5 107.5,121.5L107.5,117.5ZM91.5,105.5C91.5,108.743 91.496,111.377 91.774,113.447C92.06,115.575 92.677,117.405 94.136,118.864L96.964,116.035C96.373,115.444 95.965,114.599 95.738,112.914C95.504,111.172 95.5,108.856 95.5,105.5L91.5,105.5ZM140.5,105.5C140.5,108.856 140.496,111.172 140.262,112.914C140.035,114.599 139.627,115.444 139.036,116.035L141.864,118.864C143.323,117.405 143.94,115.575 144.226,113.447C144.504,111.377 144.5,108.743 144.5,105.5L140.5,105.5ZM128.5,121.5C131.743,121.5 134.377,121.504 136.447,121.226C138.575,120.94 140.405,120.323 141.864,118.864L139.036,116.035C138.444,116.627 137.599,117.035 135.914,117.261C134.172,117.496 131.856,117.5 128.5,117.5L128.5,121.5ZM144.5,90.659C144.5,86.089 144.543,83.185 143.356,80.606L139.722,82.277C140.457,83.875 140.5,85.723 140.5,90.659L144.5,90.659ZM133.865,76.233C137.612,79.444 138.987,80.68 139.722,82.277L143.356,80.606C142.17,78.026 139.937,76.169 136.468,73.196L133.865,76.233ZM95.5,90.659C95.5,85.723 95.543,83.875 96.278,82.277L92.644,80.606C91.457,83.185 91.5,86.089 91.5,90.659L95.5,90.659ZM99.532,73.196C96.063,76.169 93.83,78.026 92.644,80.606L96.278,82.277C97.013,80.68 98.388,79.444 102.135,76.233L99.532,73.196Z" fill="#F2F2F7"/>
<path d="M124.75,119.5C124.75,120.605 125.645,121.5 126.75,121.5C127.855,121.5 128.75,120.605 128.75,119.5L124.75,119.5ZM107.25,119.5C107.25,120.605 108.145,121.5 109.25,121.5C110.355,121.5 111.25,120.605 111.25,119.5L107.25,119.5ZM113.25,100.5L122.75,100.5L122.75,96.5L113.25,96.5L113.25,100.5ZM124.75,102.5L124.75,119.5L128.75,119.5L128.75,102.5L124.75,102.5ZM107.25,102.5L107.25,119.5L111.25,119.5L111.25,102.5L107.25,102.5ZM122.75,100.5C123.855,100.5 124.75,101.395 124.75,102.5L128.75,102.5C128.75,99.186 126.064,96.5 122.75,96.5L122.75,100.5ZM113.25,96.5C109.936,96.5 107.25,99.186 107.25,102.5L111.25,102.5C111.25,101.395 112.145,100.5 113.25,100.5L113.25,96.5Z" fill="#F2F2F7"/>
<defs>
<filter id="filter6_1400" x="0" y="24" width="380" height="65" filterUnits="userSpaceOnUse" color-interpolation-filters="sRGB">
<feFlood flood-opacity="0" result="BackgroundImageFix"/>
<feBlend mode="normal" in="SourceGraphic" in2="BackgroundImageFix" result="shape"/>
<feColorMatrix in="SourceAlpha" type="matrix" values="0 0 0 0 0 0 0 0 0 0 0 0 0 0 0 0 0 0 127 0" result="hardAlpha"/>
<feMorphology radius="-7" operator="erode" in="SourceAlpha" result="0innershadow"/>
<feOffset dx="2" dy="2"/>
<feGaussianBlur stdDeviation="7"/>
<feComposite in2="hardAlpha" operator="arithmetic" k2="-1" k3="1"/>
<feColorMatrix type="matrix" values="0 0 0 0 1 0 0 0 0 1 0 0 0 0 1 0 0 0 1 0"/>
<feBlend mode="normal" in2="shape" result="0innershadow"/>
</filter>
<filter id="filter6_1401" x="304" y="0" width="70" height="73" filterUnits="userSpaceOnUse" color-interpolation-filters="sRGB">
<feFlood flood-opacity="0" result="BackgroundImageFix"/>
<feBlend mode="normal" in="SourceGraphic" in2="BackgroundImageFix" result="shape"/>
<feColorMatrix in="SourceAlpha" type="matrix" values="0 0 0 0 0 0 0 0 0 0 0 0 0 0 0 0 0 0 127 0" result="hardAlpha"/>
<feMorphology radius="-6" operator="erode" in="SourceAlpha" result="0innershadow"/>
<feOffset dx="2" dy="3"/>
<feGaussianBlur stdDeviation="3.5"/>
<feComposite in2="hardAlpha" operator="arithmetic" k2="-1" k3="1"/>
<feColorMatrix type="matrix" values="0 0 0 0 1 0 0 0 0 1 0 0 0 0 1 0 0 0 1 0"/>
<feBlend mode="normal" in2="shape" result="0innershadow"/>
</filter>
</defs>
</svg>
