<svg width="24" height="36" viewBox="0 0 24 36" fill="none" xmlns="http://www.w3.org/2000/svg" xmlns:xlink="http://www.w3.org/1999/xlink">
<path d="M12.13,23.445C15.434,23.445 17.658,20.972 17.658,17.436L17.658,6.329C17.658,2.776 15.434,0.319 12.13,0.319C8.81,0.319 6.585,2.776 6.585,6.329L6.585,17.436C6.585,20.972 8.81,23.445 12.13,23.445ZM0.243,17.701C0.243,24.209 4.543,28.774 10.868,29.306L10.868,33.174L4.709,33.174C4.012,33.174 3.447,33.738 3.447,34.436C3.447,35.133 4.012,35.681 4.709,35.681L19.534,35.681C20.231,35.681 20.796,35.133 20.796,34.436C20.796,33.738 20.231,33.174 19.534,33.174L13.375,33.174L13.375,29.306C19.717,28.774 24,24.209 24,17.701L24,14.331C24,13.634 23.452,13.086 22.755,13.086C22.058,13.086 21.493,13.634 21.493,14.331L21.493,17.602C21.493,23.263 17.808,27.015 12.13,27.015C6.436,27.015 2.75,23.263 2.75,17.602L2.75,14.331C2.75,13.634 2.202,13.086 1.488,13.086C0.791,13.086 0.243,13.634 0.243,14.331L0.243,17.701Z" fill="#FFFFFF"/>
</svg>
