<svg width="594" height="90" viewBox="0 0 594 90" fill="none" xmlns="http://www.w3.org/2000/svg" xmlns:xlink="http://www.w3.org/1999/xlink">
<mask id="mask_0_6_1386" style="mask-type:alpha" maskUnits="userSpaceOnUse" x="0" y="0" width="297" height="45">
<rect  x="0.304" y="0.304" width="593.392" height="89.392" rx="15.696" transform="rotate(0 0.304 0.304)" fill="url(#pf_0_6_1386)"/>
<rect  x="0.304" y="0.304" width="593.392" height="89.392" rx="15.696" transform="rotate(0 0.304 0.304)" fill="url(#pattern_1_6_1386)"/>
<rect  x="0.304" y="0.304" width="593.392" height="89.392" rx="15.696" transform="rotate(0 0.304 0.304)"/>
<rect  x="0.304" y="0.304" width="593.392" height="89.392" rx="15.696" transform="rotate(0 0.304 0.304)"/>
</mask>
<g mask="url(#mask_0_6_1386)">
<rect  x="0.304" y="0.304" width="593.392" height="89.392" rx="15.696" transform="rotate(0 0.304 0.304)" fill="url(#pf_0_6_1387)"/>
<rect  x="0.304" y="0.304" width="593.392" height="89.392" rx="15.696" transform="rotate(0 0.304 0.304)" fill="url(#pattern_1_6_1387)" style="mix-blend-mode:overlay"/>
<rect  x="0.304" y="0.304" width="593.392" height="89.392" rx="15.696" transform="rotate(0 0.304 0.304)" stroke="url(#ps_0_6_1387)" stroke-width="0.304" stroke-miterlimit="3.999327"/>
<rect  x="0.304" y="0.304" width="593.392" height="89.392" rx="15.696" transform="rotate(0 0.304 0.304)" stroke="url(#ps_1_6_1387)" stroke-width="0.304" stroke-miterlimit="3.999327"/>
</g>
<rect  x="30" y="24" width="2" height="44" fill="#939393"/>
<defs>
<radialGradient id="pf_0_6_1387" cx="0" cy="0" r="1" gradientUnits="userSpaceOnUse" gradientTransform="matrix(267.76466 40.265729 -152.284827 64.353966 45.651 9.62)">
<stop stop-color="#FFFFFF" stop-opacity="0.2"/>
<stop offset="0.771" stop-color="#FFFFFF" stop-opacity="0.2"/>
<stop offset="1" stop-color="#FFFFFF" stop-opacity="0.2"/>
</radialGradient>
<radialGradient id="ps_0_6_1387" cx="0" cy="0" r="1" gradientUnits="userSpaceOnUse" gradientTransform="matrix(238.722933 32.79827 -216.468585 100.12421 -40.7 -5.412)">
<stop stop-color="#FFFFFF"/>
<stop offset="1" stop-color="#FFFFFF" stop-opacity="0"/>
</radialGradient>
<radialGradient id="ps_1_6_1387" cx="0" cy="0" r="1" gradientUnits="userSpaceOnUse" gradientTransform="matrix(-224.008465 -36.312362 239.661592 -93.952727 321.741 50.814)">
<stop stop-color="#FFFFFF"/>
<stop offset="1" stop-color="#FFFFFF" stop-opacity="0"/>
</radialGradient>
</defs>
</svg>
