<svg width="28" height="40" viewBox="0 0 28 40" fill="none" xmlns="http://www.w3.org/2000/svg" xmlns:xlink="http://www.w3.org/1999/xlink">
<path d="M27.593,22.02C27.593,21.105 26.929,20.366 26.03,20.113C23.548,19.432 21.731,17.174 21.731,14.489L21.731,4.759L23.685,4.759C24.76,4.759 25.639,3.883 25.639,2.813C25.639,1.742 24.76,0.867 23.685,0.867L4.146,0.867C3.071,0.867 2.192,1.742 2.192,2.813C2.192,3.883 3.071,4.759 4.146,4.759L6.1,4.759L6.1,14.489C6.1,17.174 4.282,19.432 1.801,20.113C0.902,20.366 0.238,21.105 0.238,22.02L0.238,22.273C0.238,23.343 1.117,24.219 2.192,24.219L11.922,24.219L11.962,37.841C11.962,38.912 12.841,39.787 13.915,39.787C14.99,39.787 15.869,38.912 15.869,37.841L15.83,24.219L25.639,24.219C26.714,24.219 27.593,23.343 27.593,22.273L27.593,22.02Z" clip-rule="evenodd" fill-rule="evenodd" transform="rotate(82.551 13.915 20.327)" fill="#E34B59"/>
</svg>
