<svg width="40" height="40" viewBox="0 0 40 40" fill="none" xmlns="http://www.w3.org/2000/svg" xmlns:xlink="http://www.w3.org/1999/xlink">
<path d="M34.86,21.96C34.94,21.32 35,20.68 35,20C35,19.32 34.94,18.68 34.86,18.04L39.08,14.74C39.46,14.44 39.56,13.9 39.32,13.46L35.32,6.54C35.14,6.22 34.8,6.04 34.44,6.04C34.32,6.04 34.2,6.06 34.1,6.1L29.12,8.1C28.08,7.3 26.96,6.64 25.74,6.14L24.98,0.84C24.92,0.36 24.5,0 24,0L16,0C15.5,0 15.08,0.36 15.02,0.84L14.26,6.14C13.04,6.64 11.92,7.32 10.88,8.1L5.9,6.1C5.78,6.06 5.66,6.04 5.54,6.04C5.2,6.04 4.86,6.22 4.68,6.54L0.68,13.46C0.42,13.9 0.54,14.44 0.92,14.74L5.14,18.04C5.06,18.68 5,19.34 5,20C5,20.66 5.06,21.32 5.14,21.96L0.92,25.26C0.54,25.56 0.44,26.1 0.68,26.54L4.68,33.46C4.86,33.78 5.2,33.96 5.56,33.96C5.68,33.96 5.8,33.94 5.9,33.9L10.88,31.9C11.92,32.7 13.04,33.36 14.26,33.86L15.02,39.16C15.08,39.64 15.5,40 16,40L24,40C24.5,40 24.92,39.64 24.98,39.16L25.74,33.86C26.96,33.36 28.08,32.68 29.12,31.9L34.1,33.9C34.22,33.94 34.34,33.96 34.46,33.96C34.8,33.96 35.14,33.78 35.32,33.46L39.32,26.54C39.56,26.1 39.46,25.56 39.08,25.26L34.86,21.96L34.86,21.96ZM30.9,18.54C30.98,19.16 31,19.58 31,20C31,20.42 30.96,20.86 30.9,21.46L30.62,23.72L32.4,25.12L34.56,26.8L33.16,29.22L30.62,28.2L28.54,27.36L26.74,28.72C25.88,29.36 25.06,29.84 24.24,30.18L22.12,31.04L21.8,33.3L21.4,36L18.6,36L18.22,33.3L17.9,31.04L15.78,30.18C14.92,29.82 14.12,29.36 13.32,28.76L11.5,27.36L9.38,28.22L6.84,29.24L5.44,26.82L7.6,25.14L9.38,23.74L9.1,21.48C9.04,20.86 9,20.4 9,20C9,19.6 9.04,19.14 9.1,18.54L9.38,16.28L7.6,14.88L5.44,13.2L6.84,10.78L9.38,11.8L11.46,12.64L13.26,11.28C14.12,10.64 14.94,10.16 15.76,9.82L17.88,8.96L18.2,6.7L18.6,4L21.38,4L21.76,6.7L22.08,8.96L24.2,9.82C25.06,10.18 25.86,10.64 26.66,11.24L28.48,12.64L30.6,11.78L33.14,10.76L34.54,13.18L32.4,14.88L30.62,16.28L30.9,18.54ZM20,12C15.58,12 12,15.58 12,20C12,24.42 15.58,28 20,28C24.42,28 28,24.42 28,20C28,15.58 24.42,12 20,12ZM20,24C17.8,24 16,22.2 16,20C16,17.8 17.8,16 20,16C22.2,16 24,17.8 24,20C24,22.2 22.2,24 20,24Z" fill="#8F8F8F"/>
</svg>
