<svg width="32" height="8" viewBox="0 0 32 8" fill="none" xmlns="http://www.w3.org/2000/svg" xmlns:xlink="http://www.w3.org/1999/xlink">
<path d="M4,-0.833C1.8,-0.833 0,0.892 0,3C0,5.108 1.8,6.833 4,6.833C6.2,6.833 8,5.108 8,3C8,0.892 6.2,-0.833 4,-0.833ZM28,-0.833C25.8,-0.833 24,0.892 24,3C24,5.108 25.8,6.833 28,6.833C30.2,6.833 32,5.108 32,3C32,0.892 30.2,-0.833 28,-0.833ZM16,-0.833C13.8,-0.833 12,0.892 12,3C12,5.108 13.8,6.833 16,6.833C18.2,6.833 20,5.108 20,3C20,0.892 18.2,-0.833 16,-0.833Z" fill="#E34B59"/>
</svg>
