<svg width="32" height="8" viewBox="0 0 32 8" fill="none" xmlns="http://www.w3.org/2000/svg" xmlns:xlink="http://www.w3.org/1999/xlink">
<path d="M4,0.333C1.8,0.333 0,1.983 0,4C0,6.017 1.8,7.667 4,7.667C6.2,7.667 8,6.017 8,4C8,1.983 6.2,0.333 4,0.333ZM28,0.333C25.8,0.333 24,1.983 24,4C24,6.017 25.8,7.667 28,7.667C30.2,7.667 32,6.017 32,4C32,1.983 30.2,0.333 28,0.333ZM16,0.333C13.8,0.333 12,1.983 12,4C12,6.017 13.8,7.667 16,7.667C18.2,7.667 20,6.017 20,4C20,1.983 18.2,0.333 16,0.333Z" fill="#E34B59"/>
</svg>
