<svg width="34" height="36" viewBox="0 0 34 36" fill="none" xmlns="http://www.w3.org/2000/svg" xmlns:xlink="http://www.w3.org/1999/xlink">
<path d="M27,24.14C25.607,24.14 24.36,24.665 23.407,25.488L10.335,18.225C10.427,17.823 10.5,17.42 10.5,17C10.5,16.58 10.427,16.177 10.335,15.775L23.26,8.583C24.25,9.458 25.552,10 27,10C30.043,10 32.5,7.655 32.5,4.75C32.5,1.845 30.043,-0.5 27,-0.5C23.957,-0.5 21.5,1.845 21.5,4.75C21.5,5.17 21.573,5.573 21.665,5.975L8.74,13.167C7.75,12.292 6.448,11.75 5,11.75C1.957,11.75 -0.5,14.095 -0.5,17C-0.5,19.905 1.957,22.25 5,22.25C6.448,22.25 7.75,21.707 8.74,20.832L21.793,28.113C21.702,28.48 21.647,28.865 21.647,29.25C21.647,32.068 24.048,34.36 27,34.36C29.952,34.36 32.353,32.068 32.353,29.25C32.353,26.433 29.952,24.14 27,24.14Z" fill="#E34B59"/>
</svg>
